<svg width="25" height="24" viewBox="0 0 25 24" fill="none" xmlns="http://www.w3.org/2000/svg">
<path d="M12.3333 6.75C12.1344 6.75 11.9437 6.67098 11.803 6.53033C11.6624 6.38968 11.5833 6.19891 11.5833 6C11.5833 5.80109 11.6624 5.61032 11.803 5.46967C11.9437 5.32902 12.1344 5.25 12.3333 5.25C12.5323 5.25 12.723 5.32902 12.8637 5.46967C13.0043 5.61032 13.0833 5.80109 13.0833 6C13.0833 6.19891 13.0043 6.38968 12.8637 6.53033C12.723 6.67098 12.5323 6.75 12.3333 6.75ZM12.3333 12.75C12.1344 12.75 11.9437 12.671 11.803 12.5303C11.6624 12.3897 11.5833 12.1989 11.5833 12C11.5833 11.8011 11.6624 11.6103 11.803 11.4697C11.9437 11.329 12.1344 11.25 12.3333 11.25C12.5323 11.25 12.723 11.329 12.8637 11.4697C13.0043 11.6103 13.0833 11.8011 13.0833 12C13.0833 12.1989 13.0043 12.3897 12.8637 12.5303C12.723 12.671 12.5323 12.75 12.3333 12.75ZM12.3333 18.75C12.1344 18.75 11.9437 18.671 11.803 18.5303C11.6624 18.3897 11.5833 18.1989 11.5833 18C11.5833 17.8011 11.6624 17.6103 11.803 17.4697C11.9437 17.329 12.1344 17.25 12.3333 17.25C12.5323 17.25 12.723 17.329 12.8637 17.4697C13.0043 17.6103 13.0833 17.8011 13.0833 18C13.0833 18.1989 13.0043 18.3897 12.8637 18.5303C12.723 18.671 12.5323 18.75 12.3333 18.75Z" stroke="#121212" stroke-width="1.5" stroke-linecap="round" stroke-linejoin="round"/>
</svg>
