<svg width="25" height="24" viewBox="0 0 25 24" fill="none" xmlns="http://www.w3.org/2000/svg">
<path d="M12.6667 6.75C12.4678 6.75 12.277 6.67098 12.1364 6.53033C11.9957 6.38968 11.9167 6.19891 11.9167 6C11.9167 5.80109 11.9957 5.61032 12.1364 5.46967C12.277 5.32902 12.4678 5.25 12.6667 5.25C12.8656 5.25 13.0564 5.32902 13.197 5.46967C13.3377 5.61032 13.4167 5.80109 13.4167 6C13.4167 6.19891 13.3377 6.38968 13.197 6.53033C13.0564 6.67098 12.8656 6.75 12.6667 6.75ZM12.6667 12.75C12.4678 12.75 12.277 12.671 12.1364 12.5303C11.9957 12.3897 11.9167 12.1989 11.9167 12C11.9167 11.8011 11.9957 11.6103 12.1364 11.4697C12.277 11.329 12.4678 11.25 12.6667 11.25C12.8656 11.25 13.0564 11.329 13.197 11.4697C13.3377 11.6103 13.4167 11.8011 13.4167 12C13.4167 12.1989 13.3377 12.3897 13.197 12.5303C13.0564 12.671 12.8656 12.75 12.6667 12.75ZM12.6667 18.75C12.4678 18.75 12.277 18.671 12.1364 18.5303C11.9957 18.3897 11.9167 18.1989 11.9167 18C11.9167 17.8011 11.9957 17.6103 12.1364 17.4697C12.277 17.329 12.4678 17.25 12.6667 17.25C12.8656 17.25 13.0564 17.329 13.197 17.4697C13.3377 17.6103 13.4167 17.8011 13.4167 18C13.4167 18.1989 13.3377 18.3897 13.197 18.5303C13.0564 18.671 12.8656 18.75 12.6667 18.75Z" stroke="#121212" stroke-width="1.5" stroke-linecap="round" stroke-linejoin="round"/>
</svg>
