<svg width="458" height="40" viewBox="0 0 458 40" fill="none" xmlns="http://www.w3.org/2000/svg">
<g clip-path="url(#clip0_12_5264)">
<path d="M40 7.5975C38.5125 8.25 36.9275 8.6825 35.275 8.8925C36.975 7.8775 38.2725 6.2825 38.8825 4.36C37.2975 5.305 35.5475 5.9725 33.6825 6.345C32.1775 4.7425 30.0325 3.75 27.6925 3.75C23.1525 3.75 19.4975 7.435 19.4975 11.9525C19.4975 12.6025 19.5525 13.2275 19.6875 13.8225C12.87 13.49 6.8375 10.2225 2.785 5.245C2.0775 6.4725 1.6625 7.8775 1.6625 9.39C1.6625 12.23 3.125 14.7475 5.305 16.205C3.9875 16.18 2.695 15.7975 1.6 15.195C1.6 15.22 1.6 15.2525 1.6 15.285C1.6 19.27 4.4425 22.58 8.17 23.3425C7.5025 23.525 6.775 23.6125 6.02 23.6125C5.495 23.6125 4.965 23.5825 4.4675 23.4725C5.53 26.72 8.545 29.1075 12.13 29.185C9.34 31.3675 5.7975 32.6825 1.9625 32.6825C1.29 32.6825 0.645 32.6525 0 32.57C3.6325 34.9125 7.9375 36.25 12.58 36.25C27.67 36.25 35.92 23.75 35.92 12.915C35.92 12.5525 35.9075 12.2025 35.89 11.855C37.5175 10.7 38.885 9.2575 40 7.5975Z" fill="white"/>
</g>
<g clip-path="url(#clip1_12_5264)">
<path d="M120 20C120 29.9828 112.686 38.257 103.125 39.757V25.7813H107.785L108.672 20H103.125V16.2484C103.125 14.6664 103.9 13.125 106.384 13.125H108.906V8.20313C108.906 8.20313 106.617 7.8125 104.429 7.8125C99.8609 7.8125 96.875 10.5813 96.875 15.5938V20H91.7969V25.7813H96.875V39.757C87.3141 38.257 80 29.9828 80 20C80 8.95469 88.9547 0 100 0C111.045 0 120 8.95469 120 20Z" fill="white"/>
<path d="M107.785 25.7812L108.672 20H103.125V16.2484C103.125 14.6667 103.9 13.125 106.384 13.125H108.906V8.20312C108.906 8.20312 106.618 7.8125 104.429 7.8125C99.8609 7.8125 96.875 10.5813 96.875 15.5938V20H91.7969V25.7812H96.875V39.757C97.8933 39.9167 98.9369 40 100 40C101.063 40 102.107 39.9167 103.125 39.757V25.7812H107.785Z" fill="#1877F2"/>
</g>
<path d="M215.953 6.25899C215.294 3.81162 213.364 1.88249 210.917 1.22347C206.447 0 188.564 0 188.564 0C188.564 0 170.682 0 166.211 1.17683C163.812 1.83542 161.835 3.81206 161.176 6.25899C160 10.7292 160 20 160 20C160 20 160 29.3174 161.176 33.741C161.835 36.1879 163.765 38.1175 166.212 38.7765C170.729 40 188.565 40 188.565 40C188.565 40 206.447 40 210.917 38.8232C213.365 38.1646 215.294 36.235 215.953 33.7881C217.129 29.3174 217.129 20.0471 217.129 20.0471C217.129 20.0471 217.176 10.7292 215.953 6.25899Z" fill="white"/>
<path d="M182.871 28.5648L197.741 20.0001L182.871 11.4354V28.5648Z" fill="#FF0000"/>
<path d="M293.122 36V35.9988H293.13V24.2628C293.13 18.5216 291.894 14.0988 285.182 14.0988C281.955 14.0988 279.79 15.8696 278.906 17.548H278.812V14.6348H272.448V35.9988H279.075V25.42C279.075 22.6348 279.603 19.9412 283.052 19.9412C286.451 19.9412 286.502 23.12 286.502 25.5984V36H293.122Z" fill="white"/>
<path d="M261.658 14.636H268.292V36H261.658V14.636Z" fill="white"/>
<path d="M264.972 4C262.851 4 261.13 5.7212 261.13 7.8428C261.13 9.9644 262.851 11.7216 264.972 11.7216C267.094 11.7216 268.815 9.9644 268.815 7.8428C268.814 5.7212 267.092 4 264.972 4Z" fill="white"/>
<g clip-path="url(#clip2_12_5264)">
<path d="M377.09 11.7601C376.997 9.63476 376.653 8.17359 376.161 6.90748C375.653 5.56353 374.871 4.36029 373.848 3.36003C372.847 2.34421 371.636 1.55487 370.308 1.05489C369.034 0.562549 367.581 0.218854 365.456 0.125146C363.314 0.0235031 362.635 0 357.204 0C351.773 0 351.093 0.0235031 348.96 0.11721C346.835 0.210918 345.373 0.554918 344.108 1.04696C342.763 1.55487 341.56 2.33627 340.56 3.36003C339.544 4.36029 338.755 5.57146 338.255 6.89985C337.762 8.17359 337.419 9.62682 337.325 11.7522C337.223 13.8934 337.2 14.5732 337.2 20.0039C337.2 25.4347 337.223 26.1144 337.317 28.2477C337.411 30.3731 337.755 31.8342 338.247 33.1003C338.755 34.4443 339.544 35.6475 340.56 36.6478C341.56 37.6636 342.771 38.4529 344.1 38.9529C345.373 39.4453 346.827 39.789 348.952 39.8827C351.085 39.9767 351.765 39.9999 357.196 39.9999C362.627 39.9999 363.307 39.9767 365.44 39.8827C367.565 39.789 369.026 39.4453 370.292 38.9529C372.98 37.9136 375.106 35.7882 376.145 33.1003C376.637 31.8266 376.981 30.3731 377.075 28.2477C377.169 26.1144 377.192 25.4347 377.192 20.0039C377.192 14.5732 377.184 13.8934 377.09 11.7601ZM373.488 28.0914C373.402 30.0449 373.074 31.0998 372.801 31.8031C372.129 33.5457 370.746 34.9287 369.003 35.6008C368.3 35.8743 367.237 36.2024 365.291 36.2882C363.182 36.3822 362.549 36.4054 357.212 36.4054C351.875 36.4054 351.234 36.3822 349.132 36.2882C347.178 36.2024 346.123 35.8743 345.42 35.6008C344.553 35.2803 343.764 34.7724 343.123 34.1082C342.459 33.4596 341.951 32.6782 341.63 31.811C341.357 31.1078 341.029 30.0449 340.943 28.0994C340.849 25.9896 340.826 25.3565 340.826 20.0195C340.826 14.6824 340.849 14.0417 340.943 11.9399C341.029 9.98639 341.357 8.93149 341.63 8.22823C341.951 7.36075 342.459 6.57172 343.131 5.93072C343.779 5.26653 344.561 4.75862 345.428 4.43843C346.131 4.16494 347.194 3.83681 349.14 3.75073C351.25 3.65703 351.883 3.63352 357.219 3.63352C362.564 3.63352 363.197 3.65703 365.299 3.75073C367.253 3.83681 368.308 4.16494 369.011 4.43843C369.878 4.75862 370.667 5.26653 371.308 5.93072C371.972 6.57935 372.48 7.36075 372.801 8.22823C373.074 8.93149 373.402 9.99402 373.488 11.9399C373.582 14.0497 373.606 14.6824 373.606 20.0195C373.606 25.3565 373.582 25.9816 373.488 28.0914Z" fill="white"/>
<path d="M357.204 9.72845C351.531 9.72845 346.928 14.3308 346.928 20.0039C346.928 25.677 351.531 30.2793 357.204 30.2793C362.877 30.2793 367.479 25.677 367.479 20.0039C367.479 14.3308 362.877 9.72845 357.204 9.72845ZM357.204 26.6693C353.524 26.6693 350.538 23.6844 350.538 20.0039C350.538 16.3234 353.524 13.3385 357.204 13.3385C360.884 13.3385 363.869 16.3234 363.869 20.0039C363.869 23.6844 360.884 26.6693 357.204 26.6693Z" fill="white"/>
<path d="M370.285 9.32218C370.285 10.6469 369.211 11.721 367.885 11.721C366.561 11.721 365.487 10.6469 365.487 9.32218C365.487 7.99716 366.561 6.92334 367.885 6.92334C369.211 6.92334 370.285 7.99716 370.285 9.32218Z" fill="white"/>
</g>
<g clip-path="url(#clip3_12_5264)">
<path d="M444.628 0C442.495 0.147499 440.003 1.51249 438.55 3.28998C437.225 4.90247 436.135 7.29746 436.56 9.62494C438.89 9.69744 441.298 8.29995 442.693 6.49246C443.998 4.80997 444.985 2.42999 444.628 0Z" fill="white"/>
<path d="M453.055 13.4199C451.008 10.8524 448.13 9.36243 445.413 9.36243C441.825 9.36243 440.308 11.0799 437.815 11.0799C435.245 11.0799 433.293 9.36743 430.19 9.36743C427.143 9.36743 423.898 11.2299 421.841 14.4149C418.948 18.8999 419.443 27.3323 424.131 34.5148C425.808 37.0848 428.048 39.9747 430.978 39.9997C433.585 40.0247 434.32 38.3273 437.853 38.3098C441.385 38.2898 442.055 40.0222 444.658 39.9947C447.59 39.9722 449.953 36.7698 451.63 34.1998C452.833 32.3573 453.28 31.4298 454.213 29.3498C447.43 26.7673 446.343 17.1224 453.055 13.4199Z" fill="white"/>
</g>
<defs>
<clipPath id="clip0_12_5264">
<rect width="40" height="40" fill="white"/>
</clipPath>
<clipPath id="clip1_12_5264">
<rect width="40" height="40" fill="white" transform="translate(80)"/>
</clipPath>
<clipPath id="clip2_12_5264">
<rect width="40" height="40" fill="white" transform="translate(337.13)"/>
</clipPath>
<clipPath id="clip3_12_5264">
<rect width="40" height="40" fill="white" transform="translate(417.13)"/>
</clipPath>
</defs>
</svg>
