<svg width="160" height="24" viewBox="0 0 160 24" fill="none" xmlns="http://www.w3.org/2000/svg">
<path d="M46.2351 0L50.784 7.00591L58.8527 9.16716L53.5953 15.6584L54.0332 24L46.2351 21.0059L38.4371 24L38.8749 15.6584L33.6176 9.16716L41.6863 7.00591L46.2351 0Z" fill="#F85559"/>
<path d="M46.2862 0L50.8351 7.00591L58.9038 9.16716L53.6464 15.6584L54.0842 24L46.2862 21.0059V0Z" fill="#FBC0A8"/>
<path d="M13 0L17.5489 7.00591L25.6176 9.16716L20.3602 15.6584L20.798 24L13 21.0059L5.20196 24L5.63979 15.6584L0.382439 9.16716L8.45115 7.00591L13 0Z" fill="#F85559"/>
<path d="M80 0L84.5489 7.00591L92.6176 9.16716L87.3602 15.6584L87.798 24L80 21.0059L72.202 24L72.6398 15.6584L67.3824 9.16716L75.4512 7.00591L80 0Z" fill="#FBC0A8"/>
<path d="M147 0L151.549 7.00591L159.618 9.16716L154.36 15.6584L154.798 24L147 21.0059L139.202 24L139.64 15.6584L134.382 9.16716L142.451 7.00591L147 0Z" fill="#FBC0A8"/>
<path d="M114 0L118.549 7.00591L126.618 9.16716L121.36 15.6584L121.798 24L114 21.0059L106.202 24L106.64 15.6584L101.382 9.16716L109.451 7.00591L114 0Z" fill="#FBC0A8"/>
</svg>
