<svg width="55" height="60" viewBox="0 0 55 60" fill="none" xmlns="http://www.w3.org/2000/svg">
<mask id="mask0_2_237" style="mask-type:luminance" maskUnits="userSpaceOnUse" x="0" y="17" width="27" height="28">
<path d="M17.8573 19.3957C14.1227 17.5975 5.40858 15.1078 1.98134 22.2082C-0.861896 28.0944 -0.677471 40.2665 6.06944 43.5247C12.4936 46.6292 22.2221 39.8823 25.3112 33.4582C28.7999 26.2655 21.6073 21.2092 17.8573 19.3957Z" fill="white"/>
</mask>
<g mask="url(#mask0_2_237)">
<path d="M28.7999 15.1074H-0.861893V46.6289H28.7999V15.1074Z" fill="url(#paint0_linear_2_237)"/>
</g>
<mask id="mask1_2_237" style="mask-type:luminance" maskUnits="userSpaceOnUse" x="0" y="17" width="16" height="24">
<path d="M9.06636 17.4897C6.25387 17.7049 3.56433 18.9344 1.98134 22.1926C-0.354723 27.0184 -0.646731 36.0553 3.02642 40.9579C9.77333 40.6967 15.1832 35.1331 15.1832 28.3248C15.1832 23.7295 12.7241 19.7182 9.06636 17.4897Z" fill="white"/>
</mask>
<g mask="url(#mask1_2_237)">
<path d="M15.1832 17.4897H-0.646729V40.9579H15.1832V17.4897Z" fill="url(#paint1_linear_2_237)"/>
</g>
<path fill-rule="evenodd" clip-rule="evenodd" d="M11.0797 31.1373C10.634 31.291 10.1729 31.7981 9.92702 32.4744C9.78871 32.8432 9.52744 33.75 10.05 33.9344C10.5571 34.1188 10.9567 33.2735 11.0951 32.9047C11.341 32.2285 11.3256 31.5522 11.0797 31.1373ZM15.1063 32.751C14.676 32.9047 14.261 33.3658 14.0305 33.9959C13.9075 34.334 13.6616 35.1947 14.1381 35.3637C14.6145 35.5481 14.9834 34.7336 15.1217 34.3955C15.3522 33.7807 15.3215 33.1506 15.1063 32.751ZM20.2549 29.4313C19.8092 29.6004 19.3481 30.0922 19.1022 30.7684C18.9639 31.1373 18.7026 32.044 19.2252 32.2285C19.7323 32.4129 20.1319 31.5676 20.2702 31.1988C20.5161 30.5225 20.4854 29.8463 20.2549 29.4313ZM15.0141 27.4795C14.5684 27.6486 14.1073 28.1404 13.8614 28.8166C13.7231 29.1854 13.4619 30.0922 13.9844 30.2766C14.4916 30.4611 14.8912 29.6158 15.0295 29.2469C15.2754 28.5553 15.26 27.8945 15.0141 27.4795ZM9.78871 25.5123C9.34301 25.666 8.88195 26.1732 8.63604 26.8494C8.49772 27.2182 8.23645 28.125 8.75899 28.3094C9.26617 28.4938 9.66576 27.6486 9.80407 27.2797C10.0346 26.6035 10.0192 25.9273 9.78871 25.5123ZM5.59302 24.1598C5.14732 24.3135 4.68626 24.8207 4.44036 25.4969C4.30204 25.8658 4.04077 26.7725 4.56331 26.957C5.07048 27.1414 5.47007 26.2961 5.60839 25.9273C5.85429 25.251 5.83892 24.5748 5.59302 24.1598ZM9.06637 20.9478C8.68215 21.0861 8.29793 21.5164 8.08277 22.1004C7.95982 22.4232 7.74465 23.1916 8.19035 23.3607C8.63604 23.5297 8.97416 22.792 9.08174 22.4693C9.28153 21.8853 9.26617 21.3012 9.06637 20.9478ZM14.8758 22.7305C14.4147 22.8227 13.8922 23.2377 13.5387 23.8525C13.3543 24.1906 12.9547 25.0359 13.4311 25.3125C13.9075 25.5738 14.4301 24.8053 14.6145 24.4518C14.968 23.8371 15.0448 23.1762 14.8758 22.7305ZM19.4557 24.9436C19.0868 25.082 18.718 25.4816 18.5182 26.0195C18.4106 26.3115 18.1954 27.0492 18.6104 27.2029C19.0254 27.3566 19.3481 26.665 19.4557 26.3576C19.6709 25.835 19.6555 25.2818 19.4557 24.9436ZM5.31638 35.1947C4.90142 35.3483 4.48646 35.794 4.25593 36.4242C4.13298 36.7623 3.90245 37.5922 4.36351 37.7612C4.83995 37.9303 5.19343 37.1465 5.31638 36.8084C5.56228 36.1936 5.53154 35.5789 5.31638 35.1947ZM9.20469 38.1608C8.78973 38.3145 8.37477 38.7602 8.14424 39.3903C8.02129 39.7285 7.77539 40.5584 8.25182 40.7274C8.72826 40.8965 9.08174 40.1127 9.20469 39.7746C9.43522 39.1598 9.41985 38.5451 9.20469 38.1608ZM6.49978 29.8309C6.08482 29.9846 5.66986 30.4303 5.43933 31.0604C5.31638 31.3986 5.07048 32.2285 5.54691 32.3975C6.02334 32.5666 6.37683 31.7828 6.49978 31.4447C6.73031 30.8299 6.71494 30.2152 6.49978 29.8309Z" fill="#E60000"/>
<mask id="mask2_2_237" style="mask-type:luminance" maskUnits="userSpaceOnUse" x="13" y="0" width="29" height="25">
<path d="M13.7077 1.69057C17.3809 4.64138 21.2538 8.60654 23.759 12.7407C27.094 18.4887 26.0182 24.5286 26.0182 24.5286C28.0469 17.5666 33.2108 16.7366 37.1606 12.4026C39.4813 9.85141 41.2179 6.22437 41.1565 1.09119C40.4341 0.230532 27.6626 0.153687 25.8645 11.0502C24.3276 7.91494 21.8532 3.85757 18.0571 0C16.5663 0.430327 15.1063 0.998973 13.7077 1.69057Z" fill="white"/>
</mask>
<g mask="url(#mask2_2_237)">
<path d="M27.4628 38.2837L53.4822 12.2643L27.4628 -13.7551L1.44341 12.2643L27.4628 38.2837Z" fill="url(#paint2_linear_2_237)"/>
</g>
<mask id="mask3_2_237" style="mask-type:luminance" maskUnits="userSpaceOnUse" x="26" y="1" width="16" height="24">
<path d="M26.095 20.21C26.3409 22.7459 26.0182 24.5287 26.0182 24.5287C28.0468 17.5666 33.2108 16.7367 37.1606 12.4027C39.3429 9.98978 41.0181 6.62401 41.1411 1.93652C40.4187 3.75004 39.1278 5.82484 36.8378 7.4693C31.6124 11.2039 26.387 15.6762 26.095 20.21Z" fill="white"/>
</mask>
<g mask="url(#mask3_2_237)">
<path d="M33.5796 32.0901L52.4372 13.2325L33.5796 -5.625L14.7221 13.2325L33.5796 32.0901Z" fill="url(#paint3_linear_2_237)"/>
</g>
<mask id="mask4_2_237" style="mask-type:luminance" maskUnits="userSpaceOnUse" x="8" y="6" width="17" height="18">
<path d="M8.2518 6.40877C8.2518 6.40877 8.46696 14.7233 16.136 17.1977C20.4085 18.919 23.4208 20.963 24.927 23.1147C23.928 13.6014 19.7169 6.02455 8.2518 6.40877Z" fill="white"/>
</mask>
<g mask="url(#mask4_2_237)">
<path d="M24.927 6.02441H8.2518V23.1299H24.927V6.02441Z" fill="url(#paint4_linear_2_237)"/>
</g>
<mask id="mask5_2_237" style="mask-type:luminance" maskUnits="userSpaceOnUse" x="8" y="6" width="17" height="18">
<path d="M8.2518 6.40877C8.2518 6.40877 8.28254 7.49996 8.68213 8.99073C8.68213 8.99073 21.9915 8.91389 24.927 23.1147C23.928 13.6014 19.7169 6.02455 8.2518 6.40877Z" fill="white"/>
</mask>
<g mask="url(#mask5_2_237)">
<path d="M29.2149 7.16185L9.37373 1.84424L3.97928 21.9774L23.8204 27.295L29.2149 7.16185Z" fill="url(#paint5_linear_2_237)"/>
</g>
<mask id="mask6_2_237" style="mask-type:luminance" maskUnits="userSpaceOnUse" x="11" y="30" width="30" height="31">
<path d="M25.9874 30.9224C34.01 30.9224 40.5263 37.4234 40.5263 45.4613C40.5263 53.4838 34.0253 60.0002 25.9874 60.0002C17.9649 60.0002 11.4485 53.4992 11.4485 45.4613C11.4485 37.4234 17.9495 30.9224 25.9874 30.9224Z" fill="white"/>
</mask>
<g mask="url(#mask6_2_237)">
<path d="M40.5263 30.9224H11.4485V60.0002H40.5263V30.9224Z" fill="url(#paint6_linear_2_237)"/>
</g>
<mask id="mask7_2_237" style="mask-type:luminance" maskUnits="userSpaceOnUse" x="21" y="31" width="20" height="29">
<path d="M28.8307 31.1987C35.5007 32.5204 40.511 38.4067 40.511 45.461C40.511 53.4835 34.01 59.9999 25.9721 59.9999C24.3891 59.9999 22.8676 59.7386 21.4383 59.2776C30.7671 59.9845 38.3286 41.0655 28.8307 31.1987Z" fill="white"/>
</mask>
<g mask="url(#mask7_2_237)">
<path d="M40.511 31.1987H21.4383V59.9845H40.511V31.1987Z" fill="url(#paint7_linear_2_237)"/>
</g>
<mask id="mask8_2_237" style="mask-type:luminance" maskUnits="userSpaceOnUse" x="11" y="31" width="17" height="25">
<path d="M15.5827 55.6198C13.0162 53.0071 11.4485 49.4108 11.4485 45.461C11.4485 38.3298 16.5817 32.3975 23.3594 31.168C25.6954 33.8114 27.1247 37.2694 27.1247 41.0809C27.1247 48.1505 22.2067 54.0829 15.5827 55.6198Z" fill="white"/>
</mask>
<g mask="url(#mask8_2_237)">
<path d="M27.1247 31.1523H11.4485V55.6041H27.1247V31.1523Z" fill="url(#paint8_linear_2_237)"/>
</g>
<path fill-rule="evenodd" clip-rule="evenodd" d="M25.4034 57.5101C19.7784 55.9579 15.6289 50.8093 15.6289 44.6771C15.6289 43.6013 15.7518 42.5562 15.9977 41.5573C16.5817 39.0983 17.8573 36.9159 19.594 35.1946C17.1196 36.7468 15.2293 39.1597 14.384 42.0337C14.0612 43.1095 13.8922 44.2622 13.8922 45.4456C13.9076 51.9312 19.01 57.2181 25.4034 57.5101Z" fill="white"/>
<mask id="mask9_2_237" style="mask-type:luminance" maskUnits="userSpaceOnUse" x="27" y="15" width="28" height="43">
<path d="M51.8839 45.5532C49.6554 50.8862 44.0151 59.7079 36.7456 56.2346C32.8573 54.3749 34.1022 50.6249 33.1647 47.2131C30.5366 37.6075 25.4034 34.0112 28.0469 24.9436C33.3645 6.79306 64.1789 16.1834 51.8839 45.5532Z" fill="white"/>
</mask>
<g mask="url(#mask9_2_237)">
<path d="M64.1789 6.79297H25.4034V59.7078H64.1789V6.79297Z" fill="url(#paint9_linear_2_237)"/>
</g>
<mask id="mask10_2_237" style="mask-type:luminance" maskUnits="userSpaceOnUse" x="36" y="28" width="19" height="30">
<path d="M51.8839 45.5531C49.6554 50.886 44.015 59.7077 36.7456 56.2344C36.5151 56.1268 36.3153 56.0039 36.1155 55.8809C42.0632 55.9885 56.2486 42.5715 54.2968 28.2017C55.2804 32.8123 54.7886 38.6217 51.8839 45.5531Z" fill="white"/>
</mask>
<g mask="url(#mask10_2_237)">
<path d="M56.2333 28.2017H36.1001V59.7077H56.2333V28.2017Z" fill="url(#paint10_linear_2_237)"/>
</g>
<mask id="mask11_2_237" style="mask-type:luminance" maskUnits="userSpaceOnUse" x="27" y="15" width="18" height="27">
<path d="M31.2743 41.8646C28.7231 35.8554 25.9413 32.1054 28.0468 24.9281C30.1831 17.628 36.4536 14.7847 42.386 15.922C43.6923 18.4271 44.4146 21.2857 44.4146 24.3134C44.43 32.6279 38.8819 39.6515 31.2743 41.8646Z" fill="white"/>
</mask>
<g mask="url(#mask11_2_237)">
<path d="M44.43 14.7852H25.9567V41.865H44.43V14.7852Z" fill="url(#paint11_linear_2_237)"/>
</g>
<path fill-rule="evenodd" clip-rule="evenodd" d="M35.6391 43.9552C35.6391 43.9552 29.5837 36.486 30.1524 28.3251C30.552 22.6694 35.0858 22.0547 33.2261 28.6786C32.304 31.9522 33.2569 37.1776 35.6391 43.9552Z" fill="white"/>
<defs>
<linearGradient id="paint0_linear_2_237" x1="21.934" y1="30.8708" x2="-2.74145" y2="30.8708" gradientUnits="userSpaceOnUse">
<stop stop-color="#FF0000"/>
<stop offset="1" stop-color="#F38288"/>
</linearGradient>
<linearGradient id="paint1_linear_2_237" x1="21.995" y1="29.2315" x2="2.39698" y2="29.2315" gradientUnits="userSpaceOnUse">
<stop stop-color="#FF0000"/>
<stop offset="1" stop-color="#F38288"/>
</linearGradient>
<linearGradient id="paint2_linear_2_237" x1="25.7812" y1="13.9498" x2="42.188" y2="-2.457" gradientUnits="userSpaceOnUse">
<stop stop-color="#4BBC39"/>
<stop offset="1" stop-color="#BEDE19"/>
</linearGradient>
<linearGradient id="paint3_linear_2_237" x1="27.5607" y1="19.258" x2="44.1334" y2="2.6853" gradientUnits="userSpaceOnUse">
<stop stop-color="#3AA34E"/>
<stop offset="1" stop-color="#BEDE19"/>
</linearGradient>
<linearGradient id="paint4_linear_2_237" x1="20.6128" y1="14.5706" x2="3.79453" y2="14.5706" gradientUnits="userSpaceOnUse">
<stop stop-color="#4BBC39"/>
<stop offset="1" stop-color="#BEDE19"/>
</linearGradient>
<linearGradient id="paint5_linear_2_237" x1="24.5028" y1="16.6901" x2="4.55214" y2="11.3444" gradientUnits="userSpaceOnUse">
<stop stop-color="#3AA34E"/>
<stop offset="1" stop-color="#BEDE19"/>
</linearGradient>
<linearGradient id="paint6_linear_2_237" x1="12.7846" y1="45.4558" x2="34.0204" y2="45.4558" gradientUnits="userSpaceOnUse">
<stop stop-color="#FFBE04"/>
<stop offset="1" stop-color="#FF7F00"/>
</linearGradient>
<linearGradient id="paint7_linear_2_237" x1="12.622" y1="45.5967" x2="29.678" y2="45.5967" gradientUnits="userSpaceOnUse">
<stop stop-color="#FFBE04"/>
<stop offset="1" stop-color="#FF7F00"/>
</linearGradient>
<linearGradient id="paint8_linear_2_237" x1="18.887" y1="43.3886" x2="33.8205" y2="43.3886" gradientUnits="userSpaceOnUse">
<stop stop-color="#FFBE04"/>
<stop offset="1" stop-color="#FF7F00"/>
</linearGradient>
<linearGradient id="paint9_linear_2_237" x1="52.541" y1="33.2505" x2="29.3341" y2="33.2505" gradientUnits="userSpaceOnUse">
<stop stop-color="#016737"/>
<stop offset="1" stop-color="#4BBC39"/>
</linearGradient>
<linearGradient id="paint10_linear_2_237" x1="48.0501" y1="43.9586" x2="32.3293" y2="43.9586" gradientUnits="userSpaceOnUse">
<stop stop-color="#016737"/>
<stop offset="1" stop-color="#4BBC39"/>
</linearGradient>
<linearGradient id="paint11_linear_2_237" x1="52.7114" y1="28.3283" x2="32.145" y2="28.3283" gradientUnits="userSpaceOnUse">
<stop stop-color="#016737"/>
<stop offset="1" stop-color="#4BBC39"/>
</linearGradient>
</defs>
</svg>
