<svg width="97" height="24" viewBox="0 0 97 24" fill="none" xmlns="http://www.w3.org/2000/svg">
<g clip-path="url(#clip0_11_4875)">
<path d="M12.5 24C19.1274 24 24.5 18.6274 24.5 12C24.5 5.37258 19.1274 0 12.5 0C5.87258 0 0.5 5.37258 0.5 12C0.5 18.6274 5.87258 24 12.5 24Z" fill="#F85559"/>
<path d="M16.3018 10.5791L16.0605 12.6695C16.0504 12.7649 16.0057 12.8533 15.9349 12.9179C15.864 12.9825 15.7718 13.0189 15.6759 13.02H13.4941L13.4832 19.2177C13.4839 19.2912 13.4557 19.362 13.4047 19.4148C13.3537 19.4676 13.2839 19.4982 13.2105 19.5H11C10.9633 19.5 10.9269 19.4926 10.8931 19.4782C10.8592 19.4639 10.8287 19.4428 10.8032 19.4163C10.7777 19.3898 10.7579 19.3584 10.7448 19.3241C10.7318 19.2897 10.7258 19.2531 10.7273 19.2164V13.02H9.09091C9.03952 13.0195 8.98873 13.0088 8.94145 12.9887C8.89417 12.9685 8.85133 12.9392 8.81537 12.9025C8.77941 12.8658 8.75103 12.8223 8.73186 12.7746C8.71269 12.7269 8.7031 12.6759 8.70364 12.6245L8.69546 10.5341C8.69474 10.4825 8.70418 10.4313 8.72325 10.3834C8.74233 10.3355 8.77065 10.2918 8.80662 10.2548C8.84258 10.2178 8.88547 10.1883 8.93285 10.1679C8.98023 10.1475 9.03116 10.1366 9.08273 10.1359H10.7273V8.11773C10.7273 5.775 12.1182 4.5 14.1582 4.5H15.83C15.8817 4.50053 15.9328 4.51127 15.9803 4.53158C16.0278 4.5519 16.0709 4.5814 16.107 4.6184C16.1431 4.65539 16.1716 4.69915 16.1907 4.74716C16.2099 4.79517 16.2194 4.84649 16.2186 4.89818V6.65727C16.2194 6.70896 16.2099 6.76028 16.1907 6.8083C16.1716 6.85631 16.1431 6.90007 16.107 6.93706C16.0709 6.97405 16.0278 7.00355 15.9803 7.02387C15.9328 7.04419 15.8817 7.05492 15.83 7.05545H14.8046C13.6959 7.05545 13.4805 7.60091 13.4805 8.38909V10.1359H15.9173C15.9727 10.1366 16.0273 10.149 16.0776 10.1723C16.1279 10.1957 16.1727 10.2294 16.209 10.2712C16.2453 10.3131 16.2724 10.3622 16.2884 10.4152C16.3044 10.4683 16.3089 10.5241 16.3018 10.5791Z" fill="white"/>
</g>
<g clip-path="url(#clip1_11_4875)">
<path d="M48.5 24C55.1274 24 60.5 18.6274 60.5 12C60.5 5.37258 55.1274 0 48.5 0C41.8726 0 36.5 5.37258 36.5 12C36.5 18.6274 41.8726 24 48.5 24Z" fill="#F85559"/>
<path d="M56.2732 7.17948C55.6885 7.43484 55.07 7.60448 54.4368 7.68317C55.1043 7.28738 55.6032 6.66035 55.839 5.92106C55.2143 6.29185 54.5307 6.55299 53.8179 6.69317C53.3811 6.22603 52.8138 5.90115 52.1899 5.76078C51.566 5.6204 50.9142 5.67103 50.3195 5.90608C49.7247 6.14113 49.2144 6.54972 48.855 7.0787C48.4956 7.60768 48.3037 8.23258 48.3042 8.87211C48.302 9.11622 48.3269 9.35982 48.3784 9.59843C47.1105 9.53615 45.8699 9.20709 44.7378 8.63274C43.6057 8.05839 42.6075 7.25167 41.8084 6.26527C41.3977 6.96697 41.2704 7.79905 41.4527 8.59143C41.6349 9.38382 42.1129 10.0767 42.789 10.5284C42.2844 10.5148 41.7904 10.38 41.349 10.1353V10.17C41.3504 10.9055 41.605 11.6181 42.0699 12.188C42.5349 12.7579 43.1819 13.1504 43.9021 13.2995C43.6295 13.3711 43.3487 13.4061 43.0668 13.4037C42.8639 13.4074 42.6612 13.3894 42.4621 13.35C42.6685 13.9826 43.0657 14.5357 43.5993 14.9332C44.1328 15.3307 44.7764 15.5532 45.4416 15.57C44.3144 16.451 42.9249 16.9296 41.4942 16.9295C41.2393 16.9317 40.9845 16.9169 40.7316 16.8853C42.1903 17.8258 43.8907 18.3227 45.6263 18.3158C51.4921 18.3158 54.699 13.4574 54.699 9.24632C54.699 9.1058 54.699 8.97001 54.6879 8.83422C55.3124 8.38349 55.8496 7.82276 56.2732 7.17948Z" fill="white"/>
</g>
<g clip-path="url(#clip2_11_4875)">
<path d="M84.5 24C91.1274 24 96.5 18.6274 96.5 12C96.5 5.37258 91.1274 0 84.5 0C77.8726 0 72.5 5.37258 72.5 12C72.5 18.6274 77.8726 24 84.5 24Z" fill="#F85559"/>
<path d="M81.8158 7.63737C81.8161 7.96166 81.7202 8.27875 81.5402 8.54851C81.3603 8.81828 81.1043 9.02859 80.8048 9.15284C80.5052 9.27708 80.1756 9.30967 79.8575 9.24648C79.5394 9.18329 79.2472 9.02716 79.0179 8.79786C78.7886 8.56855 78.6325 8.27637 78.5693 7.9583C78.5061 7.64023 78.5387 7.31056 78.6629 7.01102C78.7872 6.71148 78.9975 6.45552 79.2673 6.27556C79.537 6.09559 79.8541 5.99969 80.1784 6C80.6125 6.00042 81.0288 6.17306 81.3357 6.48004C81.6427 6.78701 81.8154 7.20324 81.8158 7.63737Z" fill="white"/>
<path d="M81.0405 9.95844H79.3163C79.0922 9.95844 78.9105 10.1401 78.9105 10.3642V17.5942C78.9105 17.8183 79.0922 18 79.3163 18H81.0405C81.2646 18 81.4463 17.8183 81.4463 17.5942V10.3642C81.4463 10.1401 81.2646 9.95844 81.0405 9.95844Z" fill="white"/>
<path d="M90.4605 14.1268V17.6274C90.4605 17.7262 90.4213 17.821 90.3514 17.8909C90.2815 17.9607 90.1867 18 90.0879 18H88.2374C88.1385 18 88.0438 17.9607 87.9739 17.8909C87.904 17.821 87.8647 17.7262 87.8647 17.6274V14.2358C87.8647 13.7289 88.0116 12.0253 86.5416 12.0253C85.4016 12.0253 85.1695 13.1968 85.1205 13.7226V17.6353C85.1185 17.7322 85.0787 17.8245 85.0098 17.8926C84.9408 17.9607 84.848 17.9992 84.7511 18H82.9605C82.9115 18.0002 82.863 17.9907 82.8177 17.9721C82.7724 17.9534 82.7312 17.926 82.6966 17.8913C82.6619 17.8567 82.6345 17.8155 82.6158 17.7702C82.5972 17.7249 82.5877 17.6764 82.5879 17.6274V10.3326C82.5877 10.2836 82.5972 10.2349 82.6158 10.1895C82.6344 10.1442 82.6619 10.1029 82.6965 10.0681C82.7311 10.0333 82.7722 10.0058 82.8176 9.98693C82.8629 9.96811 82.9115 9.95842 82.9605 9.95842H84.7511C84.8007 9.95758 84.8501 9.96664 84.8962 9.98507C84.9423 10.0035 84.9843 10.0309 85.0198 10.0658C85.0552 10.1006 85.0833 10.1421 85.1025 10.188C85.1217 10.2338 85.1316 10.283 85.1316 10.3326V10.9642C85.5547 10.3326 86.1832 9.84 87.5205 9.84C90.4779 9.83842 90.4605 12.6063 90.4605 14.1268Z" fill="white"/>
</g>
<defs>
<clipPath id="clip0_11_4875">
<rect width="24" height="24" fill="white" transform="translate(0.5)"/>
</clipPath>
<clipPath id="clip1_11_4875">
<rect width="24" height="24" fill="white" transform="translate(36.5)"/>
</clipPath>
<clipPath id="clip2_11_4875">
<rect width="24" height="24" fill="white" transform="translate(72.5)"/>
</clipPath>
</defs>
</svg>
